<svg xmlns="http://www.w3.org/2000/svg" width="760" height="260" viewBox="0 0 760 260">
  <rect width="760" height="260" fill="#f8fafc"/>
  <text x="28" y="34" font-family="Arial, Helvetica, sans-serif" font-size="22" font-weight="700" fill="#1f2937">
    Benchmark Source Profile: Average Ground-Truth Edges
  </text>
  <text x="28" y="56" font-family="Arial, Helvetica, sans-serif" font-size="12" fill="#4b5563">
    Average annotated edges per article, reproduced from benchmark/source_statistics.csv
  </text>

  <line x1="220" y1="78" x2="220" y2="224" stroke="#cbd5e1" stroke-width="1"/>
  <line x1="320" y1="78" x2="320" y2="224" stroke="#e5e7eb" stroke-width="1"/>
  <line x1="420" y1="78" x2="420" y2="224" stroke="#e5e7eb" stroke-width="1"/>
  <line x1="520" y1="78" x2="520" y2="224" stroke="#e5e7eb" stroke-width="1"/>
  <line x1="620" y1="78" x2="620" y2="224" stroke="#e5e7eb" stroke-width="1"/>

  <text x="220" y="244" font-family="Arial, Helvetica, sans-serif" font-size="11" fill="#6b7280">0</text>
  <text x="312" y="244" font-family="Arial, Helvetica, sans-serif" font-size="11" fill="#6b7280">20</text>
  <text x="412" y="244" font-family="Arial, Helvetica, sans-serif" font-size="11" fill="#6b7280">40</text>
  <text x="512" y="244" font-family="Arial, Helvetica, sans-serif" font-size="11" fill="#6b7280">60</text>

  <text x="28" y="96" font-family="Arial, Helvetica, sans-serif" font-size="13" fill="#111827">SecureNLP</text>
  <rect x="220" y="82" width="411.9" height="20" fill="#2563eb" rx="3"/>
  <text x="639" y="96" font-family="Arial, Helvetica, sans-serif" font-size="12" fill="#111827">68.66</text>

  <text x="28" y="124" font-family="Arial, Helvetica, sans-serif" font-size="13" fill="#111827">MalKG</text>
  <rect x="220" y="110" width="293.4" height="20" fill="#60a5fa" rx="3"/>
  <text x="521" y="124" font-family="Arial, Helvetica, sans-serif" font-size="12" fill="#111827">48.90</text>

  <text x="28" y="152" font-family="Arial, Helvetica, sans-serif" font-size="13" fill="#111827">GRID</text>
  <rect x="220" y="138" width="92.1" height="20" fill="#94a3b8" rx="3"/>
  <text x="320" y="152" font-family="Arial, Helvetica, sans-serif" font-size="12" fill="#111827">15.35</text>

  <text x="28" y="180" font-family="Arial, Helvetica, sans-serif" font-size="13" fill="#111827">CTINexus</text>
  <rect x="220" y="166" width="70.8" height="20" fill="#94a3b8" rx="3"/>
  <text x="298" y="180" font-family="Arial, Helvetica, sans-serif" font-size="12" fill="#111827">11.80</text>

  <text x="28" y="208" font-family="Arial, Helvetica, sans-serif" font-size="13" fill="#111827">CASIE</text>
  <rect x="220" y="194" width="47.6" height="20" fill="#94a3b8" rx="3"/>
  <text x="275" y="208" font-family="Arial, Helvetica, sans-serif" font-size="12" fill="#111827">7.94</text>
</svg>
