<svg xmlns="http://www.w3.org/2000/svg" width="820" height="360" viewBox="0 0 820 360" role="img" aria-labelledby="title desc">
  <title id="title">RQ1 baseline Avg F1 ranking</title>
  <desc id="desc">Source-averaged F1 ranking of the eight external baselines retained in the main RQ1 table.</desc>
  <rect width="820" height="360" fill="#f8f7f2"/>
  <text x="36" y="36" font-family="Georgia, serif" font-size="24" fill="#1f2937">RQ1 Baseline Avg F1 Ranking</text>
  <text x="36" y="58" font-family="Georgia, serif" font-size="12" fill="#6b7280">External baselines only; higher is better</text>

  <line x1="210" y1="300" x2="760" y2="300" stroke="#cbd5e1" stroke-width="1.5"/>

  <text x="200" y="96" text-anchor="end" font-family="Georgia, serif" font-size="14" fill="#1f2937">CTINexus</text>
  <rect x="220" y="82" width="377.63" height="18" fill="#244c7d" rx="3"/>
  <text x="607" y="96" font-family="Georgia, serif" font-size="12" fill="#1f2937">68.66</text>

  <text x="200" y="128" text-anchor="end" font-family="Georgia, serif" font-size="14" fill="#1f2937">LLM-CAKG</text>
  <rect x="220" y="114" width="341.22" height="18" fill="#3973a8" rx="3"/>
  <text x="571" y="128" font-family="Georgia, serif" font-size="12" fill="#1f2937">62.04</text>

  <text x="200" y="160" text-anchor="end" font-family="Georgia, serif" font-size="14" fill="#1f2937">Cognee</text>
  <rect x="220" y="146" width="258.17" height="18" fill="#5b93b6" rx="3"/>
  <text x="488" y="160" font-family="Georgia, serif" font-size="12" fill="#1f2937">46.94</text>

  <text x="200" y="192" text-anchor="end" font-family="Georgia, serif" font-size="14" fill="#1f2937">CTIKG</text>
  <rect x="220" y="178" width="246.99" height="18" fill="#7aa8b6" rx="3"/>
  <text x="477" y="192" font-family="Georgia, serif" font-size="12" fill="#1f2937">44.91</text>

  <text x="200" y="224" text-anchor="end" font-family="Georgia, serif" font-size="14" fill="#1f2937">Graphiti</text>
  <rect x="220" y="210" width="231.72" height="18" fill="#9db6a2" rx="3"/>
  <text x="461" y="224" font-family="Georgia, serif" font-size="12" fill="#1f2937">42.13</text>

  <text x="200" y="256" text-anchor="end" font-family="Georgia, serif" font-size="14" fill="#1f2937">GraphRAG</text>
  <rect x="220" y="242" width="176.50" height="18" fill="#c3b48a" rx="3"/>
  <text x="406" y="256" font-family="Georgia, serif" font-size="12" fill="#1f2937">32.09</text>

  <text x="200" y="288" text-anchor="end" font-family="Georgia, serif" font-size="14" fill="#1f2937">AttacKG+</text>
  <rect x="220" y="274" width="133.38" height="18" fill="#d08d5f" rx="3"/>
  <text x="363" y="288" font-family="Georgia, serif" font-size="12" fill="#1f2937">24.25</text>

  <text x="200" y="320" text-anchor="end" font-family="Georgia, serif" font-size="14" fill="#1f2937">KnowGL</text>
  <rect x="220" y="306" width="16.28" height="18" fill="#a94f43" rx="3"/>
  <text x="246" y="320" font-family="Georgia, serif" font-size="12" fill="#1f2937">2.96</text>
</svg>
