<svg xmlns="http://www.w3.org/2000/svg" width="760" height="420" viewBox="0 0 760 420">
  <rect width="760" height="420" fill="#fbfaf6"/>
  <text x="28" y="36" font-family="Arial, Helvetica, sans-serif" font-size="22" font-weight="700" fill="#1f2937">
    RQ1 Avg F1 on the Five-Source Benchmark
  </text>
  <text x="28" y="58" font-family="Arial, Helvetica, sans-serif" font-size="12" fill="#4b5563">
    Source-averaged F1 values reproduced from result/rq1/rq1_main_table.csv
  </text>

  <line x1="220" y1="82" x2="220" y2="372" stroke="#cbd5e1" stroke-width="1"/>
  <line x1="320" y1="82" x2="320" y2="372" stroke="#e5e7eb" stroke-width="1"/>
  <line x1="420" y1="82" x2="420" y2="372" stroke="#e5e7eb" stroke-width="1"/>
  <line x1="520" y1="82" x2="520" y2="372" stroke="#e5e7eb" stroke-width="1"/>
  <line x1="620" y1="82" x2="620" y2="372" stroke="#e5e7eb" stroke-width="1"/>

  <text x="220" y="392" font-family="Arial, Helvetica, sans-serif" font-size="11" fill="#6b7280">0</text>
  <text x="312" y="392" font-family="Arial, Helvetica, sans-serif" font-size="11" fill="#6b7280">20</text>
  <text x="412" y="392" font-family="Arial, Helvetica, sans-serif" font-size="11" fill="#6b7280">40</text>
  <text x="512" y="392" font-family="Arial, Helvetica, sans-serif" font-size="11" fill="#6b7280">60</text>
  <text x="612" y="392" font-family="Arial, Helvetica, sans-serif" font-size="11" fill="#6b7280">80</text>

  <text x="28" y="98" font-family="Arial, Helvetica, sans-serif" font-size="13" fill="#111827">CTINexus</text>
  <rect x="220" y="84" width="343.3" height="20" fill="#d97706" rx="3"/>
  <text x="571" y="98" font-family="Arial, Helvetica, sans-serif" font-size="12" fill="#111827">68.66</text>

  <text x="28" y="126" font-family="Arial, Helvetica, sans-serif" font-size="13" fill="#111827">GRID_Ours (Task-bank)</text>
  <rect x="220" y="112" width="342.7" height="20" fill="#2563eb" rx="3"/>
  <text x="570" y="126" font-family="Arial, Helvetica, sans-serif" font-size="12" fill="#111827">68.53</text>

  <text x="28" y="154" font-family="Arial, Helvetica, sans-serif" font-size="13" fill="#111827">LLM-CAKG</text>
  <rect x="220" y="140" width="310.2" height="20" fill="#6b7280" rx="3"/>
  <text x="538" y="154" font-family="Arial, Helvetica, sans-serif" font-size="12" fill="#111827">62.04</text>

  <text x="28" y="182" font-family="Arial, Helvetica, sans-serif" font-size="13" fill="#111827">GRID_Ours (End2End)</text>
  <rect x="220" y="168" width="290.3" height="20" fill="#60a5fa" rx="3"/>
  <text x="518" y="182" font-family="Arial, Helvetica, sans-serif" font-size="12" fill="#111827">58.06</text>

  <text x="28" y="210" font-family="Arial, Helvetica, sans-serif" font-size="13" fill="#111827">Cognee</text>
  <rect x="220" y="196" width="234.7" height="20" fill="#9ca3af" rx="3"/>
  <text x="462" y="210" font-family="Arial, Helvetica, sans-serif" font-size="12" fill="#111827">46.94</text>

  <text x="28" y="238" font-family="Arial, Helvetica, sans-serif" font-size="13" fill="#111827">CTIKG</text>
  <rect x="220" y="224" width="224.6" height="20" fill="#9ca3af" rx="3"/>
  <text x="452" y="238" font-family="Arial, Helvetica, sans-serif" font-size="12" fill="#111827">44.91</text>

  <text x="28" y="266" font-family="Arial, Helvetica, sans-serif" font-size="13" fill="#111827">Graphiti</text>
  <rect x="220" y="252" width="210.7" height="20" fill="#9ca3af" rx="3"/>
  <text x="438" y="266" font-family="Arial, Helvetica, sans-serif" font-size="12" fill="#111827">42.13</text>

  <text x="28" y="294" font-family="Arial, Helvetica, sans-serif" font-size="13" fill="#111827">GraphRAG</text>
  <rect x="220" y="280" width="160.5" height="20" fill="#9ca3af" rx="3"/>
  <text x="388" y="294" font-family="Arial, Helvetica, sans-serif" font-size="12" fill="#111827">32.09</text>

  <text x="28" y="322" font-family="Arial, Helvetica, sans-serif" font-size="13" fill="#111827">AttacKG+</text>
  <rect x="220" y="308" width="121.3" height="20" fill="#9ca3af" rx="3"/>
  <text x="349" y="322" font-family="Arial, Helvetica, sans-serif" font-size="12" fill="#111827">24.25</text>

  <text x="28" y="350" font-family="Arial, Helvetica, sans-serif" font-size="13" fill="#111827">KnowGL</text>
  <rect x="220" y="336" width="14.8" height="20" fill="#9ca3af" rx="3"/>
  <text x="242" y="350" font-family="Arial, Helvetica, sans-serif" font-size="12" fill="#111827">2.96</text>
</svg>
