<svg xmlns="http://www.w3.org/2000/svg" width="760" height="260" viewBox="0 0 760 260">
  <rect width="760" height="260" fill="#f8fafc"/>
  <text x="28" y="34" font-family="Arial, Helvetica, sans-serif" font-size="22" font-weight="700" fill="#1f2937">
    RQ2 Avg F1 Across Post-Training Variants
  </text>
  <text x="28" y="56" font-family="Arial, Helvetica, sans-serif" font-size="12" fill="#4b5563">
    Source-averaged F1 values reproduced from result/rq2/post_training_variants.csv
  </text>

  <line x1="250" y1="78" x2="250" y2="222" stroke="#cbd5e1" stroke-width="1"/>
  <line x1="350" y1="78" x2="350" y2="222" stroke="#e5e7eb" stroke-width="1"/>
  <line x1="450" y1="78" x2="450" y2="222" stroke="#e5e7eb" stroke-width="1"/>
  <line x1="550" y1="78" x2="550" y2="222" stroke="#e5e7eb" stroke-width="1"/>
  <line x1="650" y1="78" x2="650" y2="222" stroke="#e5e7eb" stroke-width="1"/>

  <text x="250" y="242" font-family="Arial, Helvetica, sans-serif" font-size="11" fill="#6b7280">0</text>
  <text x="342" y="242" font-family="Arial, Helvetica, sans-serif" font-size="11" fill="#6b7280">20</text>
  <text x="442" y="242" font-family="Arial, Helvetica, sans-serif" font-size="11" fill="#6b7280">40</text>
  <text x="542" y="242" font-family="Arial, Helvetica, sans-serif" font-size="11" fill="#6b7280">60</text>
  <text x="642" y="242" font-family="Arial, Helvetica, sans-serif" font-size="11" fill="#6b7280">80</text>

  <text x="28" y="96" font-family="Arial, Helvetica, sans-serif" font-size="13" fill="#111827">Task-bank Reward</text>
  <rect x="250" y="82" width="342.7" height="20" fill="#16a34a" rx="3"/>
  <text x="600" y="96" font-family="Arial, Helvetica, sans-serif" font-size="12" fill="#111827">68.53</text>

  <text x="28" y="124" font-family="Arial, Helvetica, sans-serif" font-size="13" fill="#111827">End2End Reward</text>
  <rect x="250" y="110" width="290.3" height="20" fill="#f59e0b" rx="3"/>
  <text x="548" y="124" font-family="Arial, Helvetica, sans-serif" font-size="12" fill="#111827">58.06</text>

  <text x="28" y="152" font-family="Arial, Helvetica, sans-serif" font-size="13" fill="#111827">Choice-only Reward</text>
  <rect x="250" y="138" width="202.8" height="20" fill="#94a3b8" rx="3"/>
  <text x="460" y="152" font-family="Arial, Helvetica, sans-serif" font-size="12" fill="#111827">40.56</text>

  <text x="28" y="180" font-family="Arial, Helvetica, sans-serif" font-size="13" fill="#111827">End2End SFT without RL</text>
  <rect x="250" y="166" width="185.7" height="20" fill="#94a3b8" rx="3"/>
  <text x="443" y="180" font-family="Arial, Helvetica, sans-serif" font-size="12" fill="#111827">37.13</text>

  <text x="28" y="208" font-family="Arial, Helvetica, sans-serif" font-size="13" fill="#111827">No post-training</text>
  <rect x="250" y="194" width="177.2" height="20" fill="#94a3b8" rx="3"/>
  <text x="435" y="208" font-family="Arial, Helvetica, sans-serif" font-size="12" fill="#111827">35.44</text>
</svg>
